<?xml version="1.0" encoding="UTF-8"?>
<svg width="34px" height="23px" viewBox="0 0 34 23" version="1.1" xmlns="http://www.w3.org/2000/svg" xmlns:xlink="http://www.w3.org/1999/xlink">
    <title>Shape</title>
    <g id="Page-1" stroke="none" stroke-width="1" fill="none" fill-rule="evenodd">
        <g id="charm_menu-hamburger-(3)" transform="translate(2.347660, 1.927730)" fill="#2E2F42" fill-rule="nonzero">
            <path d="M29.53844,17.61537 C30.3668671,17.61537 31.03844,18.2869429 31.03844,19.11537 C31.03844,19.9437971 30.3668671,20.61537 29.53844,20.61537 L-1.77635684e-15,20.61537 C-0.828427125,20.61537 -1.5,19.9437971 -1.5,19.11537 C-1.5,18.2869429 -0.828427125,17.61537 -1.77635684e-15,17.61537 L29.53844,17.61537 Z M29.53844,8.30767 C30.3668671,8.30767 31.03844,8.97924288 31.03844,9.80767 C31.03844,10.6360971 30.3668671,11.30767 29.53844,11.30767 L-1.77635684e-15,11.30767 C-0.828427125,11.30767 -1.5,10.6360971 -1.5,9.80767 C-1.5,8.97924288 -0.828427125,8.30767 -1.77635684e-15,8.30767 L29.53844,8.30767 Z M29.53844,-1 C30.3668671,-1 31.03844,-0.328427125 31.03844,0.5 C31.03844,1.32842712 30.3668671,2 29.53844,2 L-1.77635684e-15,2 C-0.828427125,2 -1.5,1.32842712 -1.5,0.5 C-1.5,-0.328427125 -0.828427125,-1 -1.77635684e-15,-1 L29.53844,-1 Z" id="Shape"></path>
        </g>
    </g>
</svg>